<svg preserveAspectRatio="none" width="100%" height="100%" overflow="visible" style="display: block;" viewBox="0 0 17.5 15.8335" fill="none" xmlns="http://www.w3.org/2000/svg">
<g id="Vector">
<path fill-rule="evenodd" clip-rule="evenodd" d="M3.33334 1.66667C2.89131 1.66667 2.46739 1.84226 2.15483 2.15482C1.84227 2.46738 1.66667 2.89131 1.66667 3.33334V10C1.66667 10.442 1.84227 10.8659 2.15483 11.1785C2.46739 11.491 2.89131 11.6666 3.33334 11.6666H8.33334C8.7936 11.6666 9.1667 12.0397 9.1667 12.5C9.1667 12.9602 8.7936 13.3333 8.33334 13.3333H3.33334C2.44928 13.3333 1.60144 12.9821 0.97631 12.357C0.35119 11.7319 0 10.884 0 10V3.33334C0 2.44928 0.35119 1.60143 0.97631 0.97631C1.60144 0.35119 2.44928 0 3.33334 0H13.3333C14.2174 0 15.0652 0.35119 15.6904 0.97631C16.3155 1.60143 16.6667 2.44928 16.6667 3.33334V7.08335C16.6667 7.54355 16.2936 7.91665 15.8333 7.91665C15.3731 7.91665 15 7.54355 15 7.08335V3.33334C15 2.89131 14.8244 2.46738 14.5118 2.15482C14.1993 1.84226 13.7754 1.66667 13.3333 1.66667H3.33334Z" fill="var(--fill-0, #183049)"/>
<path fill-rule="evenodd" clip-rule="evenodd" d="M0 5.00008C0 4.53985 0.3731 4.16675 0.83334 4.16675H15.8333C16.2936 4.16675 16.6667 4.53985 16.6667 5.00008C16.6667 5.46032 16.2936 5.83342 15.8333 5.83342H0.83334C0.3731 5.83342 0 5.46032 0 5.00008Z" fill="var(--fill-0, #183049)"/>
<path fill-rule="evenodd" clip-rule="evenodd" d="M3.3335 9.16685C3.3335 8.70655 3.7066 8.33345 4.16683 8.33345H4.17517C4.6354 8.33345 5.0085 8.70655 5.0085 9.16685C5.0085 9.62705 4.6354 10.0001 4.17517 10.0001H4.16683C3.7066 10.0001 3.3335 9.62705 3.3335 9.16685Z" fill="var(--fill-0, #183049)"/>
<path fill-rule="evenodd" clip-rule="evenodd" d="M6.667 9.16685C6.667 8.70655 7.04009 8.33345 7.50033 8.33345H9.167C9.6272 8.33345 10.0003 8.70655 10.0003 9.16685C10.0003 9.62705 9.6272 10.0001 9.167 10.0001H7.50033C7.04009 10.0001 6.667 9.62705 6.667 9.16685Z" fill="var(--fill-0, #183049)"/>
<path fill-rule="evenodd" clip-rule="evenodd" d="M17.5 12.5001C17.5 12.9604 17.1269 13.3335 16.6667 13.3335H11.6667C11.2064 13.3335 10.8333 12.9604 10.8333 12.5001C10.8333 12.0399 11.2064 11.6669 11.6667 11.6669H16.6667C17.1269 11.6669 17.5 12.0399 17.5 12.5001Z" fill="var(--fill-0, #183049)"/>
<path fill-rule="evenodd" clip-rule="evenodd" d="M13.5774 15.5895C13.252 15.264 13.252 14.7363 13.5774 14.4109L15.4882 12.5001L13.5774 10.5894C13.252 10.2639 13.252 9.73635 13.5774 9.41095C13.9029 9.08545 14.4305 9.08545 14.7559 9.41095L17.2559 11.9109C17.5814 12.2363 17.5814 12.764 17.2559 13.0895L14.7559 15.5895C14.4305 15.9149 13.9029 15.9149 13.5774 15.5895Z" fill="var(--fill-0, #183049)"/>
</g>
</svg>
