<svg preserveAspectRatio="none" width="100%" height="100%" overflow="visible" style="display: block;" viewBox="0 0 10.8835 13.0339" fill="none" xmlns="http://www.w3.org/2000/svg">
<g id="Vector">
<path fill-rule="evenodd" clip-rule="evenodd" d="M7.8447 0.318097C8.0022 0.160637 8.2575 0.160637 8.4149 0.318097L10.5654 2.46856C10.7229 2.62602 10.7229 2.88132 10.5654 3.03878L8.4149 5.18924C8.2575 5.34671 8.0022 5.34671 7.8447 5.18924C7.6872 5.03178 7.6872 4.77648 7.8447 4.61902L9.7101 2.75367L7.8447 0.888327C7.6872 0.730857 7.6872 0.475557 7.8447 0.318097Z" fill="var(--fill-0, #183049)"/>
<path fill-rule="evenodd" clip-rule="evenodd" d="M7.7033 0.176677C7.9389 -0.0588925 8.3208 -0.0588925 8.5564 0.176677L10.7068 2.32714C10.9424 2.56271 10.9424 2.94464 10.7068 3.18021L8.5564 5.33066C8.3208 5.56623 7.9389 5.56623 7.7033 5.33067C7.4677 5.0951 7.4677 4.71316 7.7033 4.4776L9.4272 2.75367L7.7033 1.02975C7.4677 0.794177 7.4677 0.412247 7.7033 0.176677ZM8.2735 0.459517C8.1942 0.380157 8.0655 0.380157 7.9861 0.459517C7.9068 0.538877 7.9068 0.667548 7.9861 0.746898L9.8515 2.61225C9.889 2.64976 9.9101 2.70063 9.9101 2.75367C9.9101 2.80671 9.889 2.85759 9.8515 2.89509L7.9861 4.76044C7.9068 4.8398 7.9068 4.96846 7.9861 5.04782C8.0655 5.12718 8.1942 5.12718 8.2735 5.04782L10.424 2.89736C10.5033 2.818 10.5033 2.68934 10.424 2.60998L8.2735 0.459517Z" fill="var(--fill-0, #183049)"/>
<path fill-rule="evenodd" clip-rule="evenodd" d="M2.75368 3.15683C2.29028 3.15683 1.84586 3.34091 1.51818 3.66859C1.19051 3.99626 1.00643 4.44068 1.00643 4.90408V5.97931C1.00643 6.202 0.825897 6.38252 0.603217 6.38252C0.380527 6.38252 0.200007 6.202 0.200007 5.97931V4.90408C0.200007 4.2268 0.469048 3.57727 0.947958 3.09836C1.42686 2.61945 2.0764 2.35041 2.75368 2.35041H10.2803C10.503 2.35041 10.6835 2.53093 10.6835 2.75362C10.6835 2.97631 10.503 3.15683 10.2803 3.15683H2.75368Z" fill="var(--fill-0, #183049)"/>
<path fill-rule="evenodd" clip-rule="evenodd" d="M0.806537 2.95694C1.32295 2.44053 2.02336 2.15041 2.75368 2.15041H10.2803C10.6134 2.15041 10.8835 2.42047 10.8835 2.75362C10.8835 3.08676 10.6134 3.35683 10.2803 3.35683H2.75368C2.34332 3.35683 1.94977 3.51984 1.65961 3.81001C1.36944 4.10017 1.20643 4.49372 1.20643 4.90408V5.97931C1.20643 6.31245 0.936357 6.58252 0.603217 6.58252C0.270067 6.58252 7.39843e-06 6.31245 7.39843e-06 5.97931V4.90408C7.39843e-06 4.17376 0.290117 3.47335 0.806537 2.95694ZM2.75368 2.55041C2.12944 2.55041 1.53078 2.79838 1.08938 3.23978C0.647977 3.68118 0.400007 4.27985 0.400007 4.90408V5.97931C0.400007 6.09154 0.490987 6.18252 0.603217 6.18252C0.715447 6.18252 0.806427 6.09154 0.806427 5.97931V4.90408C0.806427 4.38764 1.01158 3.89235 1.37676 3.52717C1.74194 3.16199 2.23723 2.95683 2.75368 2.95683H10.2803C10.3925 2.95683 10.4835 2.86585 10.4835 2.75362C10.4835 2.64139 10.3925 2.55041 10.2803 2.55041H2.75368Z" fill="var(--fill-0, #183049)"/>
<path fill-rule="evenodd" clip-rule="evenodd" d="M3.03879 7.84468C3.19625 8.00214 3.19625 8.25744 3.03879 8.4149L1.17344 10.2803L3.03879 12.1456C3.19625 12.3031 3.19625 12.5584 3.03879 12.7158C2.88132 12.8733 2.62603 12.8733 2.46856 12.7158L0.318097 10.5654C0.160637 10.4079 0.160637 10.1526 0.318097 9.99518L2.46856 7.84468C2.62603 7.68722 2.88132 7.68722 3.03879 7.84468Z" fill="var(--fill-0, #183049)"/>
<path fill-rule="evenodd" clip-rule="evenodd" d="M3.18021 7.70326C2.94464 7.46769 2.56271 7.46769 2.32714 7.70326H3.18021ZM2.89737 7.9861C2.81801 7.90674 2.68934 7.90674 2.60998 7.9861L0.459518 10.1366L0.320077 9.99708M3.18021 7.70326C3.41578 7.93883 3.41578 8.32076 3.18021 8.55628L1.45629 10.2803L3.18021 12.0042C3.41578 12.2398 3.41578 12.6217 3.18021 12.8573C2.94464 13.0928 2.56271 13.0928 2.32714 12.8573L0.176677 10.7068C-0.0588925 10.4712 -0.0588925 10.0893 0.176677 9.85368L2.32714 7.70326M2.89737 7.9861C2.97673 8.06546 2.97673 8.19413 2.89737 8.27348V7.9861ZM0.459518 10.1366C0.380168 10.2159 0.380168 10.3446 0.459518 10.424L2.60998 12.5744C2.68934 12.6538 2.81801 12.6538 2.89737 12.5744C2.97673 12.4951 2.97673 12.3664 2.89737 12.287L1.03202 10.4217C0.953917 10.3436 0.953917 10.217 1.03202 10.1388" fill="var(--fill-0, #183049)"/>
<path fill-rule="evenodd" clip-rule="evenodd" d="M10.2803 6.65138C10.503 6.65138 10.6835 6.8319 10.6835 7.05459V8.12982C10.6835 8.80708 10.4144 9.45658 9.9355 9.93558C9.4566 10.4145 8.8071 10.6835 8.1298 10.6835H0.603217C0.380527 10.6835 0.200007 10.503 0.200007 10.2803C0.200007 10.0576 0.380527 9.87708 0.603217 9.87708H8.1298C8.5932 9.87708 9.0376 9.69298 9.3653 9.36528C9.693 9.03768 9.8771 8.59318 9.8771 8.12982V7.05459C9.8771 6.8319 10.0576 6.65138 10.2803 6.65138Z" fill="var(--fill-0, #183049)"/>
<path fill-rule="evenodd" clip-rule="evenodd" d="M9.6771 7.05459C9.6771 6.72145 9.9471 6.45138 10.2803 6.45138C10.6134 6.45138 10.8835 6.72145 10.8835 7.05459V8.12982C10.8835 8.86018 10.5934 9.56058 10.077 10.077C9.5605 10.5934 8.8601 10.8835 8.1298 10.8835H0.603217C0.270067 10.8835 7.39843e-06 10.6134 7.39843e-06 10.2803C7.39843e-06 9.94718 0.270067 9.67708 0.603217 9.67708H8.1298C8.5402 9.67708 8.9337 9.51408 9.2239 9.22388C9.5141 8.93368 9.6771 8.54018 9.6771 8.12982V7.05459ZM10.2803 6.85138C10.1681 6.85138 10.0771 6.94236 10.0771 7.05459V8.12982C10.0771 8.64628 9.8719 9.14158 9.5067 9.50678C9.1416 9.87188 8.6463 10.0771 8.1298 10.0771H0.603217C0.490987 10.0771 0.400007 10.1681 0.400007 10.2803C0.400007 10.3925 0.490987 10.4835 0.603217 10.4835H8.1298C8.7541 10.4835 9.3527 10.2355 9.7941 9.79408C10.2355 9.35268 10.4835 8.75408 10.4835 8.12982V7.05459C10.4835 6.94236 10.3925 6.85138 10.2803 6.85138Z" fill="var(--fill-0, #183049)"/>
</g>
</svg>
