<svg preserveAspectRatio="none" width="100%" height="100%" overflow="visible" style="display: block;" viewBox="0 0 13.4 13.4" fill="none" xmlns="http://www.w3.org/2000/svg">
<path id="Vector (Stroke)" fill-rule="evenodd" clip-rule="evenodd" d="M0.595549 0.595549C0.976874 0.214225 1.49406 0 2.03333 0H6.7C7.0866 0 7.4 0.313401 7.4 0.7C7.4 1.0866 7.0866 1.4 6.7 1.4H2.03333C1.86536 1.4 1.70427 1.46673 1.5855 1.5855C1.46673 1.70427 1.4 1.86536 1.4 2.03333V11.3667C1.4 11.5346 1.46673 11.6957 1.5855 11.8145C1.70427 11.9333 1.86536 12 2.03333 12H11.3667C11.5346 12 11.6957 11.9333 11.8145 11.8145C11.9333 11.6957 12 11.5346 12 11.3667V6.7C12 6.3134 12.3134 6 12.7 6C13.0866 6 13.4 6.3134 13.4 6.7V11.3667C13.4 11.9059 13.1858 12.4231 12.8045 12.8045C12.4231 13.1858 11.9059 13.4 11.3667 13.4H2.03333C1.49406 13.4 0.976873 13.1858 0.595549 12.8045C0.214226 12.4231 0 11.9059 0 11.3667V2.03333C0 1.49406 0.214225 0.976874 0.595549 0.595549Z" fill="var(--fill-0, #8492A6)"/>
</svg>
