<svg preserveAspectRatio="none" width="100%" height="100%" overflow="visible" style="display: block;" viewBox="0 0 10.8142 10.8142" fill="none" xmlns="http://www.w3.org/2000/svg">
<path id="Vector (Stroke)" fill-rule="evenodd" clip-rule="evenodd" d="M8.70002 1.4C8.51059 1.4 8.32893 1.47525 8.19499 1.60919L1.99876 7.80542L1.66207 9.15216L3.00881 8.81547L9.20504 2.61924C9.33898 2.4853 9.41423 2.30363 9.41423 2.11421C9.41423 1.92479 9.33898 1.74313 9.20504 1.60919C9.0711 1.47525 8.88944 1.4 8.70002 1.4ZM7.20504 0.619239C7.60153 0.222747 8.13929 0 8.70002 0C9.26074 0 9.7985 0.222747 10.195 0.619239C10.5915 1.01573 10.8142 1.55349 10.8142 2.11421C10.8142 2.67494 10.5915 3.2127 10.195 3.60919L3.86166 9.94252C3.77195 10.0322 3.65954 10.0959 3.53646 10.1266L0.86979 10.7933C0.631247 10.8529 0.378906 10.7831 0.20504 10.6092C0.0311738 10.4353 -0.0387205 10.183 0.0209151 9.94444L0.687582 7.27777C0.718352 7.15469 0.781996 7.04228 0.871707 6.95257L7.20504 0.619239Z" fill="var(--fill-0, #8492A6)"/>
</svg>
