<svg preserveAspectRatio="none" width="100%" height="100%" overflow="visible" style="display: block;" viewBox="0 0 12.3758 12.2171" fill="none" xmlns="http://www.w3.org/2000/svg">
<g id="Vector">
<path fill-rule="evenodd" clip-rule="evenodd" d="M6.18791 10.3001C5.92045 10.3001 5.70364 10.0833 5.70364 9.81578V0.68428C5.70364 0.41682 5.92045 0.2 6.18791 0.2C6.45536 0.2 6.67218 0.41682 6.67218 0.68428V9.81578C6.67218 10.0833 6.45536 10.3001 6.18791 10.3001Z" fill="var(--fill-0, #183049)"/>
<path fill-rule="evenodd" clip-rule="evenodd" d="M6.87218 9.81578C6.87218 10.1937 6.56582 10.5001 6.18791 10.5001C5.80999 10.5001 5.50364 10.1937 5.50364 9.81578V0.68428C5.50364 0.30636 5.80999 1e-05 6.18791 0C6.56582 1e-05 6.87218 0.30636 6.87218 0.68428V9.81578ZM6.18791 10.1001C6.34491 10.1001 6.47218 9.97278 6.47218 9.81578V0.68428C6.47218 0.52728 6.34491 0.4 6.18791 0.4C6.03091 0.40001 5.90364 0.52728 5.90364 0.68428V9.81578C5.90364 9.97278 6.03091 10.1001 6.18791 10.1001Z" fill="var(--fill-0, #183049)"/>
<path fill-rule="evenodd" clip-rule="evenodd" d="M11.0961 4.9076C11.2852 5.09672 11.2852 5.40334 11.0961 5.59246L6.53034 10.1582C6.34122 10.3474 6.0346 10.3474 5.84548 10.1582L1.27972 5.59246C1.0906 5.40334 1.0906 5.09672 1.27972 4.9076C1.46884 4.71848 1.77546 4.71848 1.96458 4.9076L6.18791 9.13088L10.4112 4.9076C10.6004 4.71848 10.907 4.71848 11.0961 4.9076Z" fill="var(--fill-0, #183049)"/>
<path fill-rule="evenodd" clip-rule="evenodd" d="M11.2375 4.76618C11.5048 5.0334 11.5048 5.46666 11.2375 5.73389L6.67176 10.2997C6.40454 10.5669 5.97128 10.5669 5.70405 10.2997L1.1383 5.73389C0.87107 5.46666 0.87107 5.0334 1.1383 4.76618C1.40552 4.49896 1.83878 4.49895 2.106 4.76618L6.18791 8.84808L10.2698 4.76618C10.537 4.49895 10.9703 4.49895 11.2375 4.76618ZM10.9547 5.45104C11.0657 5.34003 11.0657 5.16004 10.9547 5.04902C10.8437 4.93801 10.6637 4.93801 10.5527 5.04902L6.32933 9.27238C6.25122 9.35048 6.12459 9.35048 6.04649 9.27238L1.82316 5.04902C1.71215 4.93801 1.53216 4.93801 1.42114 5.04902C1.31013 5.16004 1.31013 5.34003 1.42114 5.45104L5.9869 10.0168C6.09791 10.1278 6.2779 10.1278 6.38892 10.0168L10.9547 5.45104Z" fill="var(--fill-0, #183049)"/>
<path fill-rule="evenodd" clip-rule="evenodd" d="M0 11.7262C0 11.4551 0.21978 11.2353 0.49089 11.2353H11.885C12.1561 11.2353 12.3758 11.4551 12.3758 11.7262C12.3758 11.9973 12.1561 12.2171 11.885 12.2171H0.49089C0.21978 12.2171 0 11.9973 0 11.7262Z" fill="var(--fill-0, #183049)"/>
</g>
</svg>
