<svg preserveAspectRatio="none" width="100%" height="100%" overflow="visible" style="display: block;" viewBox="0 0 9.40295 9.40295" fill="none" xmlns="http://www.w3.org/2000/svg">
<g id="Vector">
<path fill-rule="evenodd" clip-rule="evenodd" d="M9.0493 0.35367C9.2542 0.55856 9.2542 0.89076 9.0493 1.09565L1.09572 9.0492C0.89083 9.2541 0.55864 9.2541 0.35375 9.0492C0.14886 8.8443 0.14886 8.5122 0.35375 8.3073L8.3073 0.35367C8.5122 0.14878 8.8444 0.14878 9.0493 0.35367Z" fill="var(--fill-0, #183049)"/>
<path fill-rule="evenodd" clip-rule="evenodd" d="M8.1659 0.21225C8.4489 -0.07075 8.9077 -0.07075 9.1907 0.21225C9.4737 0.49524 9.4737 0.95407 9.1907 1.23707L1.23707 9.1907C0.95407 9.4737 0.49524 9.4737 0.21225 9.1907C-0.07075 8.9077 -0.07075 8.4488 0.21225 8.1658L8.1659 0.21225ZM8.9078 0.49509C8.7811 0.3683 8.5755 0.3683 8.4487 0.49509L0.49509 8.4487C0.3683 8.5755 0.3683 8.781 0.49509 8.9078C0.62188 9.0346 0.82744 9.0346 0.95423 8.9078L8.9078 0.95423C9.0346 0.82744 9.0346 0.62188 8.9078 0.49509Z" fill="var(--fill-0, #183049)"/>
<path fill-rule="evenodd" clip-rule="evenodd" d="M1.15816 0.72466C1.15816 0.4349 1.39305 0.2 1.68282 0.2H8.6783C8.968 0.2 9.2029 0.4349 9.2029 0.72466V7.7201C9.2029 8.0099 8.968 8.2448 8.6783 8.2448C8.3885 8.2448 8.1536 8.0099 8.1536 7.7201V1.24932H1.68282C1.39305 1.24932 1.15816 1.01442 1.15816 0.72466Z" fill="var(--fill-0, #183049)"/>
<path fill-rule="evenodd" clip-rule="evenodd" d="M0.95816 0.72466C0.95816 0.32444 1.2826 0 1.68282 0H8.6783C9.0785 0 9.4029 0.32444 9.4029 0.72466V7.7201C9.4029 8.1203 9.0785 8.4448 8.6783 8.4448C8.278 8.4448 7.9536 8.1203 7.9536 7.7201V1.44932H1.68282C1.2826 1.44932 0.95816 1.12488 0.95816 0.72466ZM1.68282 0.4C1.50351 0.4 1.35816 0.54535 1.35816 0.72466C1.35816 0.90396 1.50351 1.04932 1.68282 1.04932H8.1536C8.2641 1.04932 8.3536 1.13886 8.3536 1.24932V7.7201C8.3536 7.8994 8.499 8.0448 8.6783 8.0448C8.8576 8.0448 9.0029 7.8994 9.0029 7.7201V0.72466C9.0029 0.54535 8.8576 0.4 8.6783 0.4H1.68282Z" fill="var(--fill-0, #183049)"/>
</g>
</svg>
